<svg width="18" height="10" viewBox="0 0 18 10" fill="none" xmlns="http://www.w3.org/2000/svg">
<path d="M13.4998 9.1763C12.3631 9.1763 10.8632 8.26262 8.99999 6.43526C7.13677 8.26262 5.63683 9.1763 4.50015 9.1763C3.25801 9.1763 2.1975 8.72842 1.31862 7.83265C0.43975 6.93689 0.000312805 5.856 0.000312805 4.58998C0.000312805 3.32397 0.43975 2.24308 1.31862 1.34731C2.1975 0.451545 3.25801 0.00366211 4.50015 0.00366211C5.64855 0.00366211 7.14849 0.917343 8.99999 2.7447C10.8632 0.917343 12.3631 0.00366211 13.4998 0.00366211C14.742 0.00366211 15.8025 0.451545 16.6814 1.34731C17.5602 2.24308 17.9997 3.32397 17.9997 4.58998C17.9997 5.856 17.5602 6.93689 16.6814 7.83265C15.8025 8.72842 14.742 9.1763 13.4998 9.1763ZM4.50015 2.29682C3.83221 2.29682 3.29023 2.51778 2.87423 2.95969C2.45823 3.4016 2.25023 3.94503 2.25023 4.58998C2.25023 5.23493 2.45823 5.77836 2.87423 6.22027C3.29023 6.66219 3.83221 6.88314 4.50015 6.88314C4.75795 6.88314 5.03041 6.80551 5.3175 6.65024C5.6046 6.49498 5.86241 6.30388 6.09091 6.07695C6.31942 5.85002 6.52742 5.6231 6.71491 5.39617C6.90241 5.16924 7.04889 4.97815 7.15435 4.82288L7.31255 4.58998C7.27739 4.53026 7.22466 4.44964 7.15435 4.34812C7.08404 4.2466 6.94049 4.06148 6.7237 3.79275C6.50691 3.52402 6.29306 3.29112 6.08212 3.09405C5.87119 2.89698 5.61925 2.71485 5.32629 2.54764C5.03333 2.38043 4.75795 2.29682 4.50015 2.29682ZM13.4998 2.29682C13.242 2.29682 12.9696 2.37445 12.6825 2.52972C12.3954 2.68499 12.1376 2.87608 11.9091 3.10301C11.6806 3.32994 11.4726 3.55686 11.2851 3.78379C11.0976 4.01072 10.9511 4.20182 10.8456 4.35708L10.6874 4.58998C10.7226 4.6497 10.7753 4.7333 10.8456 4.8408C10.9159 4.94829 11.0595 5.13341 11.2763 5.39617C11.4931 5.65893 11.7069 5.88884 11.9179 6.08591C12.1288 6.28298 12.3807 6.46512 12.6737 6.63233C12.9666 6.79954 13.242 6.88314 13.4998 6.88314C14.1678 6.88314 14.7097 6.66219 15.1257 6.22027C15.5417 5.77836 15.7497 5.23493 15.7497 4.58998C15.7497 3.94503 15.5417 3.4016 15.1257 2.95969C14.7097 2.51778 14.1678 2.29682 13.4998 2.29682Z" fill="white"/>
</svg>
