<svg width="28" height="24" viewBox="0 0 28 24" fill="none" xmlns="http://www.w3.org/2000/svg">
<path d="M7.74692 18.3555L5.62292 15.3855L3.42692 18.3555H0.366922L4.09292 13.4775L0.492922 8.67147H3.64292L5.69492 11.4975L7.80092 8.67147H10.7889L7.18892 13.4055L10.9329 18.3555H7.74692Z" fill="white"/>
<path d="M18.0455 12.4335C18.0455 13.1028 18.068 13.7722 18.0379 14.4415C18.0003 15.3235 18.271 16.0795 18.7822 16.7725C18.9251 16.9615 19.0003 17.2371 19.0153 17.4812C19.0679 18.3159 19.0679 19.1585 19.113 20.0011C19.1657 20.9855 19.9476 21.8832 20.9249 21.9462C22.0752 22.017 23.233 22.017 24.3758 21.9462C25.3757 21.8832 26.1125 21.0091 26.1802 19.9539C26.2328 19.0876 26.2478 18.2214 26.308 17.3631C26.323 17.1583 26.4057 16.93 26.526 16.7725C27.0222 16.1189 27.2778 15.3944 27.2703 14.5597C27.2628 13.0792 27.2778 11.5909 27.2703 10.1104C27.2628 9.59857 27.2026 9.08672 27.1726 8.58273C27.15 8.27562 26.9996 8.07087 26.7139 7.97638C26.1125 7.76376 25.5035 7.56689 24.9021 7.33852C24.6915 7.25978 24.5637 7.29127 24.4284 7.48027C23.9698 8.13387 23.4886 8.7796 23.015 9.41745C22.7443 9.78757 22.594 9.77969 22.3233 9.40958C21.8497 8.76385 21.3685 8.126 20.9174 7.46452C20.7896 7.27553 20.6768 7.25978 20.4813 7.33065C19.8649 7.55114 19.2484 7.74801 18.6319 7.97638C18.3462 8.07875 18.1958 8.29924 18.1808 8.62998C18.1282 9.89781 18.0605 11.1735 18.0003 12.4414C18.0229 12.4256 18.0379 12.4256 18.0455 12.4335Z" fill="white"/>
<path d="M22.6992 6.36308C24.3081 6.36308 25.7741 4.84319 25.7741 3.18156C25.7741 1.47267 24.3532 0.00790601 22.7067 3.09464e-05C21.0677 -0.00784411 19.6393 1.48842 19.6543 3.18943C19.6769 4.85894 21.1203 6.36308 22.6992 6.36308Z" fill="white"/>
</svg>
