<svg width="48" height="48" viewBox="0 0 48 48" fill="none" xmlns="http://www.w3.org/2000/svg">
<path d="M47.25 27.75V20.25C47.25 19.8353 46.9147 19.5 46.5 19.5H43.7445C43.2345 17.25 42.3555 15.132 41.124 13.1873L43.2803 11.0302C43.5735 10.737 43.5735 10.263 43.2803 9.96975L38.0303 4.71975C37.737 4.4265 37.263 4.4265 36.9697 4.71975L34.8128 6.876C32.868 5.64375 30.75 4.7655 28.5 4.2555V1.5C28.5 1.08525 28.1647 0.75 27.75 0.75H20.25C19.8353 0.75 19.5 1.08525 19.5 1.5V4.2555C17.25 4.7655 15.132 5.6445 13.1873 6.876L11.0302 4.71975C10.737 4.4265 10.263 4.4265 9.96975 4.71975L4.71975 9.96975C4.4265 10.263 4.4265 10.737 4.71975 11.0302L6.876 13.1873C5.64375 15.132 4.7655 17.25 4.2555 19.5H1.5C1.08525 19.5 0.75 19.8353 0.75 20.25V27.75C0.75 28.1647 1.08525 28.5 1.5 28.5H4.2555C4.7655 30.75 5.6445 32.868 6.876 34.8128L4.71975 36.9697C4.4265 37.263 4.4265 37.737 4.71975 38.0303L9.96975 43.2803C10.263 43.5735 10.737 43.5735 11.0302 43.2803L13.1873 41.124C15.132 42.3563 17.25 43.2345 19.5 43.7445V46.5C19.5 46.9147 19.8353 47.25 20.25 47.25H27.75C28.1647 47.25 28.5 46.9147 28.5 46.5V43.7445C29.832 43.4422 31.1197 42.9967 32.3595 42.4342C32.2882 42.7785 32.25 43.1348 32.25 43.5V46.5C32.25 46.9147 32.5853 47.25 33 47.25H46.5C46.9147 47.25 47.25 46.9147 47.25 46.5V43.5C47.25 40.9492 45.42 38.8192 43.005 38.349C43.437 37.8952 43.7738 37.3522 43.9875 36.75H45C46.2405 36.75 47.25 35.7405 47.25 34.5C47.25 33.5235 46.6208 32.6985 45.75 32.388V32.25C45.75 30.8318 45.2528 29.5282 44.4263 28.5H46.5C46.9147 28.5 47.25 28.1647 47.25 27.75ZM45.75 43.5V45.75H44.25V42.75H42.75V45.75H36.75V42.75H35.25V45.75H33.75V43.5C33.75 42.0052 34.635 40.7227 35.9032 40.1205L37.65 42.45C37.7805 42.624 37.9793 42.7327 38.1968 42.7477C38.4233 42.768 38.6265 42.684 38.7803 42.5303L39.75 41.5605L40.7197 42.5303C40.8607 42.672 41.0513 42.75 41.25 42.75C41.2673 42.75 41.2852 42.7493 41.3032 42.7477C41.52 42.732 41.7195 42.624 41.85 42.45L43.5968 40.1205C44.865 40.7227 45.75 42.0052 45.75 43.5ZM35.25 35.25H34.5C34.086 35.25 33.75 34.914 33.75 34.5C33.75 34.086 34.086 33.75 34.5 33.75H35.25V35.25ZM23.25 35.25V38.2118C19.887 38.0355 16.8353 36.6938 14.484 34.5765L16.2803 32.7803L15.2197 31.7197L13.4235 33.516C11.3055 31.1647 9.9645 28.113 9.78825 24.75H12.75V23.25H9.78825C9.9645 19.887 11.3063 16.8353 13.4235 14.484L15.2197 16.2803L16.2803 15.2197L14.484 13.4235C16.8353 11.3055 19.887 9.9645 23.25 9.78825V12.75H24.75V9.78825C28.113 9.9645 31.1647 11.3063 33.516 13.4235L31.7197 15.2197L32.7803 16.2803L34.5765 14.484C36.6945 16.8353 38.0355 19.887 38.2118 23.25H35.25V24.75H38.2125C38.1818 25.3417 38.1195 25.9282 38.0168 26.5072C35.5515 27.2535 33.75 29.544 33.75 32.25V32.388C32.8792 32.6985 32.25 33.5235 32.25 34.5C32.25 34.8405 32.3318 35.1607 32.4683 35.4502C30.2265 37.1092 27.5422 38.0693 24.75 38.2163V35.25H23.25ZM44.2485 32.121C43.3763 31.8105 42.75 30.9772 42.75 30C42.75 29.5853 42.4147 29.25 42 29.25C41.5853 29.25 41.25 29.5853 41.25 30C41.25 31.2405 40.2405 32.25 39 32.25H35.25C35.25 29.7682 37.2682 27.75 39.75 27.75C42.1883 27.75 44.1795 29.6992 44.2485 32.121ZM36.75 33.75H39C40.2255 33.75 41.3153 33.159 42 32.2478C42.2122 32.5305 42.468 32.7772 42.75 32.9902V35.25C42.75 36.9045 41.4045 38.25 39.75 38.25C38.0955 38.25 36.75 36.9045 36.75 35.25V33.75ZM42 39.75L41.169 40.8585L40.2803 39.9697C40.134 39.8235 39.942 39.75 39.75 39.75C39.558 39.75 39.366 39.8235 39.2197 39.9697L38.331 40.8585L37.5 39.75H39.75H42ZM45 35.25H44.25V33.75H45C45.414 33.75 45.75 34.086 45.75 34.5C45.75 34.914 45.414 35.25 45 35.25ZM45.75 27H43.1362C43.0132 27 42.9022 27.0383 42.7987 27.0915C41.904 26.5605 40.8638 26.25 39.75 26.25C39.6893 26.25 39.6292 26.2575 39.5692 26.259C39.6765 25.512 39.75 24.7582 39.75 24C39.75 15.3158 32.6842 8.25 24 8.25C15.3158 8.25 8.25 15.3158 8.25 24C8.25 32.6842 15.3158 39.75 24 39.75C27.4538 39.75 30.7987 38.6017 33.531 36.522C33.8257 36.6637 34.1512 36.75 34.5 36.75H35.5125C35.7262 37.3522 36.063 37.8952 36.495 38.349C35.2402 38.5935 34.146 39.2865 33.3817 40.2533L33.3743 40.2405C31.581 41.277 29.64 42.0037 27.606 42.3997C27.2542 42.4688 27 42.777 27 43.1362V45.75H21V43.1362C21 42.777 20.7458 42.4688 20.3932 42.4005C17.9123 41.9168 15.5963 40.9545 13.5075 39.5415C13.2098 39.3405 12.8115 39.378 12.5565 39.6322L10.5 41.6895L6.3105 37.5L8.36775 35.4427C8.622 35.1885 8.66025 34.7902 8.4585 34.4917C7.0455 32.4037 6.08325 30.087 5.5995 27.606C5.53125 27.2542 5.223 27 4.86375 27H2.25V21H4.86375C5.223 21 5.53125 20.7458 5.5995 20.3932C6.08325 17.9123 7.0455 15.5963 8.4585 13.5075C8.66025 13.2098 8.622 12.8108 8.36775 12.5565L6.3105 10.5L10.5 6.3105L12.5573 8.36775C12.8123 8.62275 13.2098 8.66025 13.5082 8.4585C15.5962 7.0455 17.913 6.08325 20.394 5.5995C20.7458 5.53125 21 5.223 21 4.86375V2.25H27V4.86375C27 5.223 27.2542 5.53125 27.6067 5.5995C30.0877 6.08325 32.4038 7.0455 34.4925 8.4585C34.7903 8.66025 35.19 8.62275 35.4435 8.36775L37.5 6.3105L41.6895 10.5L39.6322 12.5573C39.378 12.8115 39.3397 13.2098 39.5415 13.5082C40.9545 15.5962 41.9168 17.913 42.4005 20.394C42.4688 20.7458 42.777 21 43.1362 21H45.75V27Z" fill="white"/>
<path d="M27 24C27 22.6058 26.0407 21.4418 24.75 21.1065V14.25H23.25V21.1065C21.9592 21.4418 21 22.6058 21 24C21 24.555 21.1612 25.068 21.4252 25.5143L17.4697 29.4697L18.5302 30.5303L22.4857 26.5747C22.932 26.8387 23.445 27 24 27C25.6545 27 27 25.6545 27 24ZM24 25.5C23.1727 25.5 22.5 24.8273 22.5 24C22.5 23.1727 23.1727 22.5 24 22.5C24.8272 22.5 25.5 23.1727 25.5 24C25.5 24.8273 24.8272 25.5 24 25.5Z" fill="#FFA800"/>
</svg>
