<svg width="48" height="49" viewBox="0 0 48 49" fill="none" xmlns="http://www.w3.org/2000/svg">
<g clip-path="url(#clip0)">
<path d="M14.4001 4.90076H4.00024V6.53407H14.4001V4.90076Z" fill="#2A2241"/>
<path d="M14.4001 8.16724H4.00024V9.80055H14.4001V8.16724Z" fill="#2A2241"/>
<path d="M11.2002 11.4339H4.00024V13.0672H11.2002V11.4339Z" fill="#2A2241"/>
<path d="M11.2002 14.7004H4.00024V16.3337H11.2002V14.7004Z" fill="#2A2241"/>
<path d="M47.9992 47.3666H-0.000244141V48.9999H47.9992V47.3666Z" fill="#2A2241"/>
<path d="M46.3158 6.98565L43.1158 0.452402C42.9185 0.0487694 42.4383 -0.115174 42.0429 0.0862335C42.0427 0.0863356 42.0425 0.0864377 42.0423 0.0865398L35.6423 3.35317C35.2469 3.55478 35.0864 4.04549 35.2839 4.44912C35.4814 4.85275 35.9621 5.01659 36.3575 4.81498L40.9927 2.45076L39.7279 6.13715C34.1687 22.2996 19.8499 33.6385 3.13234 35.117L3.26834 36.7503C20.6158 35.2162 35.4733 23.4485 41.2391 6.67614L42.5303 2.90972L44.8838 7.71574C45.0813 8.11938 45.562 8.28322 45.9574 8.08161C46.3529 7.87999 46.5133 7.38939 46.3158 6.98565Z" fill="#FFA800"/>
<path d="M9.59963 39.2002H3.9997C3.5579 39.2002 3.19971 39.5659 3.19971 40.0169V44.9168C3.19971 45.3678 3.5579 45.7334 3.9997 45.7334H9.59963C10.0414 45.7334 10.3996 45.3678 10.3996 44.9168V40.0169C10.3996 39.5659 10.0414 39.2002 9.59963 39.2002ZM8.79964 44.1001H4.79969V40.8335H8.79964V44.1001Z" fill="#2A2241"/>
<path d="M18.3997 36.7504H12.7997C12.358 36.7504 11.9998 37.116 11.9998 37.567V44.9169C11.9998 45.3679 12.358 45.7336 12.7997 45.7336H18.3997C18.8415 45.7336 19.1997 45.3679 19.1997 44.9169V37.567C19.1997 37.116 18.8415 36.7504 18.3997 36.7504ZM17.5997 44.1003H13.5997V38.3837H17.5997V44.1003Z" fill="#2A2241"/>
<path d="M27.1997 32.6671H21.5998C21.158 32.6671 20.7998 33.0327 20.7998 33.4837V44.9169C20.7998 45.3679 21.158 45.7336 21.5998 45.7336H27.1997C27.6415 45.7336 27.9997 45.3679 27.9997 44.9169V33.4837C27.9997 33.0327 27.6415 32.6671 27.1997 32.6671ZM26.3998 44.1002H22.3998V34.3004H26.3998V44.1002Z" fill="#2A2241"/>
<path d="M35.9998 26.9506H30.3998C29.958 26.9506 29.5999 27.3162 29.5999 27.7672V44.917C29.5999 45.368 29.958 45.7337 30.3998 45.7337H35.9998C36.4416 45.7337 36.7998 45.368 36.7998 44.917V27.7672C36.7998 27.3162 36.4416 26.9506 35.9998 26.9506ZM35.1998 44.1003H31.1998V28.5839H35.1998V44.1003Z" fill="#2A2241"/>
<path d="M44.7998 15.5172H39.1999C38.7581 15.5172 38.3999 15.8829 38.3999 16.3339V44.9168C38.3999 45.3678 38.7581 45.7335 39.1999 45.7335H44.7998C45.2416 45.7335 45.5998 45.3678 45.5998 44.9168V16.3339C45.5998 15.8829 45.2416 15.5172 44.7998 15.5172ZM43.9998 44.1002H39.9999V17.1505H43.9998V44.1002Z" fill="#2A2241"/>
</g>
<defs>
<clipPath id="clip0">
<rect width="48" height="49" fill="white"/>
</clipPath>
</defs>
</svg>
